<?xml version="1.0" encoding="UTF-8"?>
<svg width="306px" height="345px" viewBox="0 0 306 345" version="1.1" xmlns="http://www.w3.org/2000/svg" xmlns:xlink="http://www.w3.org/1999/xlink">
    <title>icon</title>
    <g id="页面-1" stroke="none" stroke-width="1" fill="none" fill-rule="evenodd">
        <g id="ISO_C++_Logo" fill-rule="nonzero">
            <path d="M302.107,258.262 C304.508,254.103 306,249.417 306,245.209 L306,99.14 C306,94.932 304.51,90.247 302.108,86.088 L153,172.175 L302.107,258.262 Z" id="路径" fill="#5CCA81"></path>
            <path d="M166.25,341.193 L292.75,268.159 C296.394,266.055 299.706,262.422 302.107,258.262 L153,172.175 L3.893,258.263 C6.294,262.422 9.607,266.056 13.25,268.159 L139.75,341.193 C147.037,345.401 158.963,345.401 166.25,341.193 Z" id="路径" fill="#9B6E4A"></path>
            <path d="M302.108,86.087 C299.706,81.927 296.393,78.294 292.75,76.19 L166.25,3.156 C158.963,-1.052 147.037,-1.052 139.75,3.156 L13.25,76.19 C5.962,80.397 0,90.725 0,99.14 L0,245.209 C0,249.417 1.491,254.103 3.893,258.262 L153,172.175 L302.108,86.087 Z" id="路径" fill="#94D06D"></path>
            <path d="M153,274.175 C96.757,274.175 51,228.418 51,172.175 C51,115.932 96.757,70.175 153,70.175 C189.292,70.175 223.139,89.705 241.331,121.143 L197.188,146.687 C188.083,130.951 171.15,121.175 153,121.175 C124.878,121.175 102,144.053 102,172.175 C102,200.296 124.878,223.175 153,223.175 C171.152,223.175 188.085,213.399 197.191,197.66 L241.334,223.203 C223.142,254.644 189.294,274.175 153,274.175 Z" id="路径" fill="#FFFFFF"></path>
            <polygon id="路径" fill="#FFFFFF" points="255 166.508 243.666 166.508 243.666 155.175 232.334 155.175 232.334 166.508 221 166.508 221 177.841 232.334 177.841 232.334 189.175 243.666 189.175 243.666 177.841 255 177.841"></polygon>
            <polygon id="路径" fill="#FFFFFF" points="297.5 166.508 286.166 166.508 286.166 155.175 274.834 155.175 274.834 166.508 263.5 166.508 263.5 177.841 274.834 177.841 274.834 189.175 286.166 189.175 286.166 177.841 297.5 177.841"></polygon>
        </g>
    </g>
</svg>